<svg width="238" height="284" xmlns="http://www.w3.org/2000/svg">

 <g id="imagebot_28">
  <path fill="#ffffff" stroke-width="3.2874" stroke-linecap="round" stroke="#010101" d="M 222.9314021170698 161.17700099274515 C 222.94826739781723 221.68500099274516 176.99318824123964 270.74700099274514 120.29679916864261 270.74700099274514 C 63.60322097617016 270.74700099274514 17.64345701938495 221.68500099274516 17.66219622021541 161.17700099274515 C 17.645330939467996 100.66900099274517 63.600410096045586 51.607000992745164 120.29679916864261 51.607000992745164 C 176.99037736111507 51.607000992745164 222.9501413179003 100.66900099274517 222.9314021170698 161.17700099274515 z" stroke-linejoin="round" id="imagebot_30"/>
  <path transform="translate(-0.0035936 -0.022999) matrix(0.93696 0 0 1 7.5841 0)" fill="#cccccc" d="M225.81,138.74C225.81,199.204 174.158,239.07 113.7,239.07C66.438,239.07 27.127,206.207 11.78,164.238C14.433,223.516 61.435,269.198 120.2,269.198C180.663,269.198 230.58,219.756 228.09,159.298C227.89821,149.144 227.85463,149.6232 225.8143,138.744L225.81,138.74z" id="imagebot_29"/>
  <title>imagebot_28</title>
  <polyline id="imagebot_31" points="288.9096984863281,124.93054962158203 288.9096984863281,124.93054962158203 " stroke-opacity="null" stroke-linecap="round" stroke-linejoin="round" stroke-dasharray="null" stroke-width="3.2874" stroke="#010101" fill="none"/>
  <polyline id="imagebot_32" points="292.9096984863281,147.93054962158203 292.9096984863281,147.93054962158203 " stroke-opacity="null" stroke-linecap="round" stroke-linejoin="round" stroke-dasharray="null" stroke-width="3.2874" stroke="#010101" fill="none"/>
 </g>
 <g stroke-width="4" stroke="#010101" stroke-linejoin="round" id="imagebot_21">
  <g transform="translate(-0.0035936 -0.022999)" stroke-width="4" stroke="#010101" stroke-linejoin="round" id="imagebot_25">
   <path d="M112.81,271.78C112.81,280.87 98.143,281.16 80.074,281.16C62.004,281.16 47.338,281.85 47.338,271.78C47.338,254.06 62.004,239.68 80.074,239.68C98.143,239.68 112.81,254.06 112.81,271.78z" fill="#4c4c4c" stroke-linecap="round" id="imagebot_27"/>
   <path d="M67.483,280.56C67.483,264.19 76.925,254.12 76.925,254.12S73.148,267.97 73.778,280.56L67.483,280.56z" fill="#4c4c4c" fill-opacity="0.3137" id="imagebot_26"/>
  </g>
  <g transform="translate(-0.0035936 -0.022999)" stroke-width="4" stroke="#010101" stroke-linejoin="round" id="imagebot_22">
   <path d="M127.81,271.78C127.81,280.87 142.47,281.16 160.54,281.16S193.28,281.85 193.28,271.78C193.28,254.06 178.61,239.68 160.54,239.68S127.81,254.06 127.81,271.78z" fill="#4c4c4c" stroke-linecap="round" id="imagebot_24"/>
   <path d="M173.13,280.56C173.13,264.19 163.69,254.12 163.69,254.12S167.47,267.97 166.84,280.56L173.13,280.56z" fill="#4c4c4c" fill-opacity="0.3137" id="imagebot_23"/>
  </g>
  <title>imagebot_21</title>
 </g>
 <g>
  <title>Layer 1</title>
  <path stroke-linejoin="round" stroke="#010101" stroke-linecap="round" stroke-width="4" fill="#4c4c4c" d="M 111.94640640383587 49.07400099274516 C 112.67540640383586 49.16600099274516 113.40640640383586 49.29400099274516 114.14940640383587 49.40400099274516 C 134.06040640383586 52.38900099274516 148.25140640383586 61.03700099274516 157.53440640383587 73.36200099274517 L 169.58740640383587 56.43100099274516 C 169.50540640383585 56.42900099274516 169.42440640383586 56.41700099274516 169.34040640383586 56.41600099274516 C 161.11040640383587 37.39000099274516 144.80040640383586 23.66500099274516 118.60040640383586 19.73500099274516 C 117.86040640383587 19.623000992745162 117.13040640383586 19.49600099274516 116.40040640383586 19.40400099274516 C 105.84040640383586 18.083000992745163 96.38240640383586 18.798000992745163 87.98940640383586 21.20300099274516 L 83.54140640383586 50.87000099274516 C 91.93240640383587 48.46600099274516 101.39040640383587 47.75100099274516 111.94840640383586 49.07400099274516 L 111.94640640383587 49.07400099274516 z" id="imagebot_20"/>
  <ellipse id="imagebot_36" cy="191.93055" cx="47.6597" stroke-opacity="null" stroke-linecap="round" stroke-linejoin="round" stroke-dasharray="null" stroke-width="4" stroke="#010101" fill="#4c4c4c"/>
  <ellipse id="imagebot_37" cy="172.9306" cx="279.9097" stroke-opacity="null" stroke-linecap="round" stroke-linejoin="round" stroke-dasharray="null" stroke-width="4" stroke="#010101" fill="#4c4c4c"/>
  <ellipse id="imagebot_38" cy="149.04163" cx="342.1595" fill-opacity="null" stroke-opacity="null" stroke-linecap="round" stroke-linejoin="round" stroke-dasharray="null" stroke-width="4" stroke="#010101" fill="#4c4c4c"/>
  <circle id="imagebot_39" r="12" cy="139.04166" cx="168.9097" stroke-opacity="null" stroke-linecap="round" stroke-linejoin="round" stroke-dasharray="null" stroke-width="4" stroke="#010101" fill="#4c4c4c"/>
  <circle id="imagebot_40" r="0" cy="182.04166" cx="333.9097" fill-opacity="null" stroke-opacity="null" stroke-linecap="round" stroke-linejoin="round" stroke-dasharray="null" stroke-width="4" stroke="#010101" fill="#4c4c4c"/>
  <ellipse id="imagebot_41" cy="185.29171" cx="333.9097" fill-opacity="null" stroke-opacity="null" stroke-linecap="round" stroke-linejoin="round" stroke-dasharray="null" stroke-width="4" stroke="#010101" fill="#4c4c4c"/>
  <ellipse ry="6.58064" rx="6.58064" id="imagebot_42" cy="223.71909" cx="50.58712" fill-opacity="null" stroke-opacity="null" stroke-linecap="round" stroke-linejoin="round" stroke-dasharray="null" stroke-width="4" stroke="#010101" fill="#4c4c4c"/>
  <ellipse ry="6.96774" rx="6.96774" id="imagebot_43" transform="translate(11 -4) matrix(1 0 0 1 0 0)" cy="243.17069" cx="130.03873" fill-opacity="null" stroke-opacity="null" stroke-linecap="round" stroke-linejoin="round" stroke-dasharray="null" stroke-width="4" stroke="#010101" fill="#4c4c4c"/>
  <ellipse ry="5.41935" rx="5.41935" id="imagebot_44" cy="185.36424" cx="191.23228" fill-opacity="null" stroke-opacity="null" stroke-linecap="round" stroke-linejoin="round" stroke-dasharray="null" stroke-width="4" stroke="#010101" fill="#4c4c4c"/>
  <circle id="imagebot_45" r="12" cy="59.04166" cx="116.9097" fill-opacity="null" stroke-opacity="null" stroke-linecap="round" stroke-linejoin="round" stroke-dasharray="null" stroke-width="4" stroke="#010101" fill="#4c4c4c"/>
  <circle id="imagebot_46" r="12" cy="62.04166" cx="122.9097" fill-opacity="null" stroke-opacity="null" stroke-linecap="round" stroke-linejoin="round" stroke-dasharray="null" stroke-width="4" stroke="#010101" fill="#4c4c4c"/>
  <ellipse ry="6.58064" rx="6.58064" id="imagebot_47" cy="227.71909" cx="97.58712" fill-opacity="null" stroke-opacity="null" stroke-linecap="round" stroke-linejoin="round" stroke-dasharray="null" stroke-width="4" stroke="#010101" fill="#4c4c4c"/>
  <ellipse ry="12" rx="12" id="imagebot_48" cy="214.04166" cx="181.9097" fill-opacity="null" stroke-opacity="null" stroke-linecap="round" stroke-linejoin="round" stroke-dasharray="null" stroke-width="4" stroke="#010101" fill="#4c4c4c"/>
  <ellipse ry="9.67742" rx="9.67742" id="imagebot_49" cy="140.33199" cx="30.20002" fill-opacity="null" stroke-opacity="null" stroke-linecap="round" stroke-linejoin="round" stroke-dasharray="null" stroke-width="4" stroke="#010101" fill="#4c4c4c"/>
  <ellipse ry="8.51613" rx="8.51613" id="imagebot_50" cy="152.97715" cx="211.84518" fill-opacity="null" stroke-opacity="null" stroke-linecap="round" stroke-linejoin="round" stroke-dasharray="null" stroke-width="4" stroke="#010101" fill="#4c4c4c"/>
  <ellipse ry="9.29032" rx="9.29032" id="imagebot_51" cy="187.88037" cx="51.74841" fill-opacity="null" stroke-opacity="null" stroke-linecap="round" stroke-linejoin="round" stroke-dasharray="null" stroke-width="4" stroke="#010101" fill="#4c4c4c"/>
  <ellipse id="imagebot_52" ry="8.51613" rx="8.51613" cy="150.97715" cx="340.84518" fill-opacity="null" stroke-opacity="null" stroke-linecap="round" stroke-linejoin="round" stroke-dasharray="null" stroke-width="4" stroke="#010101" fill="#4c4c4c"/>
 </g>
 <g id="imagebot_16">
  <path fill="#cccccc" d="M 204.71640640383586 125.89700099274516 C 204.71640640383586 171.07200099274516 149.59540640383585 207.73500099274517 122.87840640383587 207.73500099274517 C 97.15940640383586 207.73500099274517 41.04040640383586 171.07200099274516 41.04040640383586 125.89700099274516 C 41.04040640383586 80.72300099274516 65.66540640383586 44.05900099274516 122.87840640383587 44.05900099274516 C 180.10140640383585 44.05900099274516 204.71640640383586 80.72400099274516 204.71640640383586 125.89700099274516 z" id="imagebot_19"/>
  <path fill-opacity="0.3137" fill="#010101" d="M 198.63640640383585 85.88800099274516 L 196.76140640383585 88.54400099274515 C 197.00940640383587 91.62000099274516 197.10540640383587 94.74700099274516 197.10540640383587 97.91900099274515 C 197.10540640383587 143.09400099274515 141.97840640383586 179.76300099274516 115.26140640383586 179.76300099274516 C 94.55440640383587 179.76300099274516 54.163406403835864 156.00700099274516 39.19840640383586 123.16900099274515 C 46.81340640383586 163.41500099274515 96.37040640383586 194.54400099274517 120.07340640383586 194.54400099274517 C 146.79040640383587 194.54400099274517 201.91740640383586 157.87500099274516 201.91740640383586 112.70000099274516 C 201.91740640383586 103.30900099274515 200.84140640383586 94.29000099274516 198.63640640383585 85.88800099274516 z" id="imagebot_18"/>
  <path fill="#ffffff" stroke-width="4" stroke-linecap="round" stroke="#010101" d="M 237.02640640383586 4.179000992745161 C 232.00540640383585 -2.338999007254839 172.14540640383586 10.538500992745162 163.63540640383587 43.52400099274516 C 163.55740640383587 43.67800099274516 163.42040640383587 44.14200099274516 163.26640640383587 44.83900099274516 C 163.21940640383588 45.05300099274516 163.17040640383587 45.28600099274516 163.12040640383586 45.54400099274516 C 161.19540640383588 44.37000099274516 159.21240640383587 43.28300099274516 157.18540640383586 42.27200099274516 C 147.20640640383587 38.558000992745164 135.52040640383586 36.51000099274516 122.01240640383587 36.51000099274516 C 121.11740640383586 36.51000099274516 120.23340640383586 36.49200099274516 119.35640640383586 36.51000099274516 C 106.48340640383586 36.77100099274516 95.31940640383586 38.942000992745164 85.75640640383587 42.66900099274516 C 83.44940640383587 43.85400099274516 81.20440640383586 45.14000099274516 79.03340640383587 46.53500099274516 C 78.98840640383587 46.253000992745164 78.94240640383586 45.99200099274516 78.89740640383586 45.741000992745164 C 78.68140640383587 44.558000992745164 78.46440640383587 43.73400099274516 78.36040640383587 43.52500099274516 C 71.71440640383587 17.75300099274516 33.73240640383587 2.005000992745161 15.032406403835862 2.000000992745161 C 9.795406403835862 1.9990009927451609 6.070406403835863 2.753000992745161 4.972406403835863 4.179000992745161 C 0.9704064038358629 9.37200099274516 9.223406403835863 51.119000992745164 31.54740640383586 65.56800099274516 C 35.745406403835865 68.28500099274517 40.44140640383586 70.04100099274515 45.648406403835864 70.40100099274517 C 47.767406403835864 70.54700099274515 49.75840640383586 70.55700099274516 51.62840640383586 70.52000099274517 C 45.79040640383586 81.57000099274516 42.480406403835865 94.15400099274517 42.480406403835865 107.51300099274516 C 42.480406403835865 121.03000099274516 39.89560640383586 128.12200099274517 51.82940640383586 148.35300099274517 S 103.61940640383587 194.32800099274516 122.01540640383587 194.32800099274516 C 140.58040640383587 194.32800099274516 178.49340640383588 170.58300099274516 190.83040640383587 150.65600099274516 S 201.26340640383586 121.82300099274516 201.26340640383586 107.51300099274516 C 201.26340640383586 94.16700099274516 197.94140640383586 81.60300099274517 192.11540640383586 70.56000099274516 C 193.46040640383586 70.54800099274516 194.88640640383585 70.50300099274516 196.35240640383586 70.40200099274516 C 201.94740640383586 70.01400099274517 206.95240640383585 68.01800099274516 211.38340640383586 64.94500099274516 C 233.00440640383587 49.95600099274516 240.97240640383586 9.29900099274516 237.02740640383587 4.179000992745161 L 237.02640640383586 4.179000992745161 z" stroke-linejoin="round" id="imagebot_17"/>
  <title>imagebot_16</title>
  <ellipse id="imagebot_54" cy="77.06889" cx="300.03812" stroke-opacity="null" stroke-linecap="round" stroke-linejoin="round" stroke-dasharray="null" stroke-width="4" stroke="#010101" fill="#ffffff"/>
  <polyline id="imagebot_55" points="349.03660583496094,50.568885803222656 349.03660583496094,50.568885803222656 " stroke-opacity="null" stroke-linecap="round" stroke-linejoin="round" stroke-dasharray="null" stroke-width="4" stroke="#010101" fill="none"/>
  <ellipse transform="translate(170.037 120.569) translate(-170.037 -120.569)" id="imagebot_58" cy="117.31891" cx="187.78661" fill-opacity="null" stroke-opacity="null" stroke-linecap="round" stroke-linejoin="round" stroke-dasharray="null" stroke-width="4" stroke="#010101" fill="#ffffff"/>
  <circle id="imagebot_59" cy="101.70833" cx="184.20831" fill-opacity="null" stroke-opacity="null" stroke-linecap="round" stroke-linejoin="round" stroke-dasharray="null" stroke-width="4" stroke="#010101" fill="#ffffff"/>
  <ellipse transform="translate(128.208 54.4583) translate(-128.208 -54.4583)" id="imagebot_60" cy="65.95833" cx="129.45831" stroke-opacity="null" stroke-linecap="round" stroke-linejoin="round" stroke-dasharray="null" stroke-width="4" stroke="#010101" fill="#4c4c4c"/>
  <ellipse id="imagebot_61" cy="115.95833" cx="185.95831" stroke-opacity="null" stroke-linecap="round" stroke-linejoin="round" stroke-dasharray="null" stroke-width="4" stroke="#010101" fill="#4c4c4c"/>
  <circle transform="translate(-111.038 69.1111) translate(111.038 -69.1111)" id="imagebot_72" r="0" cy="71.11111" cx="-117.03821" opacity="0.08" stroke-opacity="null" stroke-linecap="round" stroke-linejoin="round" stroke-dasharray="null" stroke-width="4" stroke="#010101" fill="#000000"/>
 </g>
 <g>
  <title>Layer 2</title>
  <path stroke-linejoin="round" stroke="#010101" stroke-linecap="round" stroke-width="4.9991" fill="#4c4c4c" d="M 120.99640640383586 152.33700099274517 C 96.17240640383586 152.33700099274517 76.04340640383586 168.85400099274517 76.04340640383586 189.20500099274517 C 76.04340640383586 192.97930099274515 76.74702640383586 196.63240099274515 78.03550640383587 200.06300099274517 C 93.92150640383586 209.74000099274517 109.77350640383587 215.33400099274516 120.99650640383587 215.33400099274516 C 132.49150640383587 215.33400099274516 148.18650640383586 209.92120099274516 163.84150640383587 200.49300099274515 C 165.23250640383586 196.93990099274515 165.98990640383587 193.13560099274517 165.98990640383587 189.20600099274517 C 165.98990640383587 168.85200099274516 145.81990640383586 152.33600099274517 120.99690640383587 152.33600099274517 L 120.99640640383586 152.33700099274517 z" id="imagebot_15"/>
 </g>
 <g id="imagebot_12">
  <path transform="translate(-0.0035936 -0.022999) matrix(1 0 0 1 2.7523 9.633)" fill="#010101" d="M102.85,169.37C105.143,173.344 109.35,175.209 112.246,173.537C115.143,171.864 115.631,167.288 113.337,163.315C111.045,159.342 106.837,157.477 103.941,159.149S100.556,165.398 102.85,169.37z" id="imagebot_14"/>
  <path transform="translate(-0.0035936 -0.022999) matrix(1 0 0 1 2.7523 9.633)" fill="#010101" d="M135.58,169.37C133.288,173.344 129.08,175.209 126.184,173.537C123.288,171.864 122.799,167.288 125.093,163.315C127.386,159.342 131.593,157.477 134.489,159.149C137.387,160.821 137.874,165.398 135.58,169.37z" id="imagebot_13"/>
  <title>imagebot_12</title>
 </g>
 <g id="imagebot_5">
  <g transform="translate(-0.0035936 -0.022999)" id="imagebot_9">
   <path fill="#fff" stroke-width="4" stroke-linecap="round" stroke="#010101" d="M168.03,100.74C168.033,113.259 157.886,123.409 145.367,123.409S122.701,113.259 122.705,100.74C122.701,88.22 132.849,78.07 145.367,78.07C157.886,78.07 168.033,88.22 168.03,100.74z" stroke-linejoin="round" id="imagebot_11"/>
   <path fill="#010101" d="M147.88,104.74C147.882,108.914 144.499,112.297 140.325,112.297C136.153,112.297 132.77,108.914 132.771,104.74C132.77,100.567 136.153,97.184 140.325,97.184C144.499,97.184 147.882,100.567 147.88,104.74z" id="imagebot_10"/>
  </g>
  <g transform="translate(-0.0035936 -0.022999)" id="imagebot_6">
   <path fill="#fff" stroke-width="4" stroke-linecap="round" stroke="#010101" d="M115.3,100.74C115.304,113.259 105.156,123.409 92.638,123.409C80.118,123.409 69.971,113.259 69.975,100.74C69.971,88.22 80.119,78.07 92.638,78.07C105.156,78.07 115.304,88.22 115.3,100.74z" stroke-linejoin="round" id="imagebot_8"/>
   <path fill="#010101" d="M105.85,104.74C105.85,108.914 102.468,112.297 98.295,112.297C94.121,112.297 90.739,108.914 90.74,104.74C90.739,100.567 94.121,97.184 98.295,97.184C102.468,97.184 105.85,100.567 105.85,104.74z" id="imagebot_7"/>
  </g>
  <title>imagebot_5</title>
 </g>
 <g fill="#010101" stroke-width="4" stroke="#010101" stroke-linejoin="round" id="imagebot_2">
  <path fill="#4c4c4c" stroke-width="4" stroke="#010101" stroke-linejoin="round" d="M 62.42740640383586 54.93500099274516 C 59.91540640383586 18.70100099274516 22.119406403835864 19.45100099274516 20.325406403835864 23.75600099274516 S 27.628906403835863 67.49100099274516 62.42740640383586 54.93500099274516 z" id="imagebot_4"/>
  <path fill="#4c4c4c" stroke-width="4" stroke="#010101" stroke-linejoin="round" d="M 177.38640640383585 55.05600099274516 C 179.89740640383587 18.82200099274516 214.65440640383585 18.96400099274516 216.44740640383586 23.269000992745163 C 218.24140640383587 27.574000992745162 212.18570640383587 67.61200099274517 177.38640640383585 55.05600099274516 z" id="imagebot_3"/>
  <title>imagebot_2</title>
 </g>
 <metadata>image/svg+xmlOpenclipart</metadata>
</svg>