<?xml version="1.0"?>
<svg xmlns:rdf="http://www.w3.org/1999/02/22-rdf-syntax-ns#" xmlns="http://www.w3.org/2000/svg" xmlns:cc="http://web.resource.org/cc/" xmlns:xlink="http://www.w3.org/1999/xlink" xmlns:dc="http://purl.org/dc/elements/1.1/" xmlns:svg="http://www.w3.org/2000/svg" id="svg2" viewBox="0 0 299.53 403.86" version="1.0">
  <defs id="defs4">
    <filter id="filter8796" y="-.079553" width="1.2291" height="1.1591" x="-.11456">
      <feGaussianBlur id="feGaussianBlur8798" stdDeviation="4.7175424"/>
    </filter>
    <filter id="filter8800" y="-.079957" width="1.2271" height="1.1599" x="-.11356">
      <feGaussianBlur id="feGaussianBlur8802" stdDeviation="4.7205774"/>
    </filter>
    <filter id="filter12017" y="-.41809" width="1.3042" height="1.8362" x="-.15212">
      <feGaussianBlur id="feGaussianBlur12019" stdDeviation="6.229053"/>
    </filter>
    <filter id="filter13022">
      <feGaussianBlur id="feGaussianBlur13024" stdDeviation="5.13693"/>
    </filter>
    <filter id="filter15042" y="-.20083" width="1.1134" height="1.4017" x="-.056724">
      <feGaussianBlur id="feGaussianBlur15044" stdDeviation="3.6262535"/>
    </filter>
    <filter id="filter46678" y="-.17825" width="1.0688" height="1.3565" x="-.034415">
      <feGaussianBlur id="feGaussianBlur46680" stdDeviation="5.849178"/>
    </filter>
    <radialGradient id="radialGradient46705" gradientUnits="userSpaceOnUse" cy="312.44" cx="192.73" gradientTransform="matrix(1 0 0 1.4148 0 -135.88)" r="43.681">
      <stop id="stop4179" stop-color="#fff" offset="0"/>
      <stop id="stop4181" stop-color="#c5e9f1" offset="1"/>
    </radialGradient>
    <radialGradient id="radialGradient46725" gradientUnits="userSpaceOnUse" cy="649.92" cx="223.45" gradientTransform="matrix(.62623 0 0 .85754 -24.593 -357.68)" r="185.21">
      <stop id="stop5638" stop-color="#0f0" offset="0"/>
      <stop id="stop13997" stop-color="#0c0" offset=".65248"/>
      <stop id="stop5640" stop-color="#1a8400" offset="1"/>
    </radialGradient>
  </defs>
  <g id="layer1" transform="translate(-10.097 -12.422)">
    <rect id="rect46701" style="color:#000000" height="403.86" width="299.53" y="12.422" x="10.097" fill="#fff"/>
    <path id="path45635" style="color:#000000" d="m496.41 933.73a169.96 32.814 0 1 1 -339.91 0 169.96 32.814 0 1 1 339.91 0z" transform="matrix(.62623 0 0 .62708 -19.324 -210.73)" filter="url(#filter46678)" fill="#373737"/>
    <path id="path2146" stroke-linejoin="round" style="color:#000000" d="m255.15 254.67c-1.5 70.62-54.56 128.62-118.56 128.62-64.007 0-114.84-58-113.34-128.62 1.497-70.62 50.084-188.01 114.07-189.02 63.72-1.016 119.33 118.4 117.83 189.02z" fill-rule="evenodd" stroke-linecap="round" stroke-width="5.7" fill="url(#radialGradient46725)"/>
    <path id="path7639" style="color:#000000" d="m243.79 327.58a41.181 59.301 0 1 1 -82.36 0 41.181 59.301 0 1 1 82.36 0z" fill-rule="evenodd" transform="matrix(.59560 0 0 .57739 -39.819 -17.622)" filter="url(#filter8796)" fill="#165016"/>
    <path id="path3204" style="color:#000000" d="m243.79 327.58a41.181 59.301 0 1 1 -82.36 0 41.181 59.301 0 1 1 82.36 0z" fill-rule="evenodd" transform="matrix(.62623 0 0 .62708 -47.268 -38.1)" fill="url(#radialGradient46705)"/>
    <path id="path7641" style="color:#000000" d="m243.79 327.58a41.181 59.301 0 1 1 -82.36 0 41.181 59.301 0 1 1 82.36 0z" fill-rule="evenodd" transform="matrix(-.63350 -.12496 -.12437 .57852 303.58 8.1592)" filter="url(#filter8800)" fill="#165016"/>
    <path id="path4185" style="color:#000000" d="m235.56 354.76a18.12 22.238 0 1 1 -36.24 0 18.12 22.238 0 1 1 36.24 0z" fill-rule="evenodd" transform="matrix(.61561 0 0 .80422 -44.96 -105.07)" stroke="#000" stroke-linecap="round" stroke-width="7.9789"/>
    <path id="path4187" style="color:#000000" d="m235.56 354.76a18.12 22.238 0 1 1 -36.24 0 18.12 22.238 0 1 1 36.24 0z" fill-rule="evenodd" transform="matrix(.26390 0 0 .25293 29.503 79.583)" fill="#999"/>
    <path id="path4197" style="color:#000000" d="m243.79 327.58a41.181 59.301 0 1 1 -82.36 0 41.181 59.301 0 1 1 82.36 0z" fill-rule="evenodd" transform="matrix(-.61262 -.12605 -.12604 .61425 299.74 -8.3857)" fill="url(#radialGradient46705)"/>
    <path id="path4199" style="color:#000000" d="m235.56 354.76a18.12 22.238 0 1 1 -36.24 0 18.12 22.238 0 1 1 36.24 0z" fill-rule="evenodd" transform="matrix(-.60224 -.12391 -.16164 .78776 312.65 -72.49)" stroke="#000" stroke-linecap="round" stroke-width="7.9789"/>
    <path id="path4201" style="color:#000000" d="m235.56 354.76a18.12 22.238 0 1 1 -36.24 0 18.12 22.238 0 1 1 36.24 0z" fill-rule="evenodd" transform="matrix(-.25817 -.053117 -.050836 .24775 197.19 93.009)" fill="#999"/>
    <path id="rect5176" d="m115.96 100.39l45.37 13.32-6.89 10.81-40.22-19.84 1.74-4.29z" style="color:#000000" fill-rule="evenodd"/>
    <path id="path5179" d="m94.88 100.57l-42.758 14.33 8.144 10.25 36.865-20.48-2.251-4.1z" style="color:#000000" fill-rule="evenodd"/>
    <path id="path2685" d="m119.63 82.401c-3.77-0.825-8.19-6.367-11.01-9.189-4.71-4.712 7.5-10.94 9.17-11.946 9.14-20.072-5.84-30.737-23.854-20.215" stroke="#000" stroke-width="1.6" fill="none"/>
    <path id="path6616" style="color:#000000" d="m126.29 740.39c19.99 103.77 85.63 67.9 149.73 76.04 41.31 5.24 37.53-53.28 43.79-92.21 8.62-53.54-8.81 0.27-58.85 12.24-119.09 28.49-131.46-21.86-134.67 3.93z" transform="matrix(.49980 -.063657 .067934 .52345 -36.766 -108.15)" filter="url(#filter13022)" stroke="#000" stroke-linecap="round" stroke-width="5.4625" fill="none"/>
    <path id="path5644" d="m169.77 240.47c-5.28 5.12-9.53 11.54-15.55 15.91-9.04 7.15-20.5 9.9-31.19 13.08-14.24 3.75-29.49 4.92-43.715 0.28-1.23-0.58-2.943-0.39-2.61 1.46 0.503 5.02 3.072 9.74 5.067 14.28-0.429 2.29 15.826 18.24 24.998 18.29 13.53-0.01 21.69 0.19 34.86-1.99 7.47-2.07 17.14 2.66 23.41-2.91 6.26-5.92 4.54-27.43 5.01-35.64-0.13-7.58 1.04-15.29-0.24-22.76l-0.01-0.02-0.03 0.02z" style="color:#000000" fill="#fff" fill-rule="evenodd"/>
    <path id="path10746" opacity=".45769" d="m289.99 845.61c-28.6-13.77-57.9-23.98-81.89 14.77 13.13-0.34 28.08-5 48.33 1.34v1.34c3.66-10.83 19.66-13.44 33.56-17.45z" fill-rule="evenodd" transform="matrix(1.075 -.16935 .097321 .61946 -212.59 -165.22)" filter="url(#filter12017)" fill="#250"/>
    <path id="path13999" opacity=".52692" d="m167.82 735.52c52.11 11.13 90.52-5.12 124.86-29.54" transform="matrix(.71743 0 0 .79346 -43.91 -321.87)" filter="url(#filter15042)" stroke="#fff" stroke-width="4.7873" fill="none"/>
  </g>
  <metadata>
    <rdf:RDF>
      <cc:Work>
        <dc:format>image/svg+xml</dc:format>
        <dc:type rdf:resource="http://purl.org/dc/dcmitype/StillImage"/>
        <cc:license rdf:resource="http://creativecommons.org/licenses/publicdomain/"/>
        <dc:publisher>
          <cc:Agent rdf:about="http://openclipart.org/">
            <dc:title>Openclipart</dc:title>
          </cc:Agent>
        </dc:publisher>
        <dc:title>green comic egg</dc:title>
        <dc:date>2007-09-19T10:15:34</dc:date>
        <dc:description>I found some older SVG`s on my HD....have fun.</dc:description>
        <dc:source>http://openclipart.org/detail/5615/green-comic-egg-by-chrisdesign</dc:source>
        <dc:creator>
          <cc:Agent>
            <dc:title>Chrisdesign</dc:title>
          </cc:Agent>
        </dc:creator>
        <dc:subject>
          <rdf:Bag>
            <rdf:li>clip art</rdf:li>
            <rdf:li>clipart</rdf:li>
            <rdf:li>comic</rdf:li>
            <rdf:li>eastern</rdf:li>
            <rdf:li>egg</rdf:li>
            <rdf:li>funny</rdf:li>
            <rdf:li>green</rdf:li>
            <rdf:li>image</rdf:li>
            <rdf:li>media</rdf:li>
            <rdf:li>png</rdf:li>
            <rdf:li>public domain</rdf:li>
            <rdf:li>svg</rdf:li>
          </rdf:Bag>
        </dc:subject>
      </cc:Work>
      <cc:License rdf:about="http://creativecommons.org/licenses/publicdomain/">
        <cc:permits rdf:resource="http://creativecommons.org/ns#Reproduction"/>
        <cc:permits rdf:resource="http://creativecommons.org/ns#Distribution"/>
        <cc:permits rdf:resource="http://creativecommons.org/ns#DerivativeWorks"/>
      </cc:License>
    </rdf:RDF>
  </metadata>
</svg>
