<?xml version="1.0" encoding="utf-8"?>
<!-- Generator: Adobe Illustrator 17.1.0, SVG Export Plug-In . SVG Version: 6.00 Build 0)  -->
<!DOCTYPE svg PUBLIC "-//W3C//DTD SVG 1.1//EN" "http://www.w3.org/Graphics/SVG/1.1/DTD/svg11.dtd">
<svg version="1.1" id="Layer_1" xmlns="http://www.w3.org/2000/svg" xmlns:xlink="http://www.w3.org/1999/xlink" x="0px" y="0px"
	 viewBox="0 0 236 284" enable-background="new 0 0 236 284" xml:space="preserve">
<rect y="0" fill="none" width="236" height="284"/>
<g>
	<ellipse fill="#0a91bc" cx="115.5" cy="270.7" rx="62.2" ry="3.9"/>
	<g>
		<polygon fill="#FAB8DC" points="101.7,238.1 105,259.5 109.6,259.5 112.5,241.1 		"/>
		<path fill="#3C3B42" d="M115.8,271.8c0.1-8-2.2-14.2-10.2-14.3c-8-0.1-7.8,14.1-7.8,14.1L115.8,271.8z"/>
	</g>
	<g>
		<polygon fill="#FAB8DC" points="121.5,177.6 159.2,234.1 149.7,240.4 119.2,182.1 		"/>
		<polygon fill="#3C3B42" points="154.2,226.7 145,232.5 150.4,242.2 156.1,237.9 160.4,234.7 		"/>
	</g>
	<g>
		<polygon fill="#FAB8DC" points="109.5,177.6 71.8,234.1 81.3,240.4 111.8,182.1 		"/>
		<polygon fill="#3C3B42" points="76.8,226.7 86,232.5 80.6,242.2 74.9,237.9 70.6,234.7 		"/>
	</g>
	<polygon fill="#FAB8DC" points="132.2,243.2 129.4,264.5 125.8,264.5 123.7,246.1 	"/>
	<path fill="#3C3B42" d="M117.1,272.1c0-8,2.4-14.2,10.4-14.2c8,0,7.6,14.2,7.6,14.2H117.1z"/>
	<path fill="#FAB8DC" d="M120.2,173.1l-4.4,0.1l-4.4-0.1c0,0-59.2,77,4.3,77C179.1,250.1,120.2,173.1,120.2,173.1z"/>
	<g>
		<path fill="#FAB8DC" d="M53.4,136.9c-3.3-16.9,1.8-36,16.4-46.2c1.5-1.2,3.1-2.3,4.7-3.4c6.6-4.1,14.3-6.7,22.5-7.2
			c2.1-0.3,4.1-0.6,6.2-0.7c2.2-0.3,4.4-0.6,6.7-0.8c2.3-0.2,4.6-0.4,6.9-0.6c2.3-0.2,4.7-0.2,7-0.3c1.9,0,3.8,0,5.7,0.1
			c20.9,0.7,43.3,12.8,49.7,34.7c0.7,2.2,1.2,4.4,1.5,6.7c0.6,4.6,0.5,9.3-0.5,14.1c-0.3,2.8-0.8,5.5-1.5,8.1
			c-5.8,22.8-24.6,33.7-45.9,35.7c-2.6,0.3-5.3,0.4-8,0.4c-2.6,0.2-5.3,0.3-8.1,0.4c-2.7,0-5.5,0-8.3-0.1
			c-8.7-0.3-17.4-2.2-25.2-5.7c-2-0.9-3.9-1.9-5.7-3c-1.7-1-3.3-2.2-4.9-3.5c-1.3-1.1-2.6-2.3-3.9-3.4c-2-1.9-3.9-4-5.7-6.2
			c-0.9-1.1-1.8-2.2-2.6-3.4c-2.1-3.8-4-7.7-5.7-11.5C54.3,139.7,53.8,138.3,53.4,136.9z"/>
		<path fill="#FAB8DC" d="M110,90.5c0,0-24.9-18.2-16.1-16.1c8.7,2,12.8,7.4,12.8,7.4s-0.7-14.1,2.7-14.1c3.4,0,4.7,10.1,4.7,10.1
			s4.7-5.4,11.4-5.4c6.7,0,2.7,7.4,2.7,7.4s6-6.7,10.8,0c4.7,6.7-9.4,10.8-9.4,10.8H110z"/>
		<g>
			<g>
				<path fill="#3C3B42" d="M111,125.8c0,2.1-0.7,4.1-2,5.4c-1.4,1.4-3.4,2-5.4,2s-3.9-0.9-5.2-2.2c-1.4-1.4-2.6-3.1-2.6-5.2
					c0-2.1,1.3-3.8,2.7-5.1c1.4-1.4,3.1-2.2,5.1-2.2s3.6,1,5,2.4C109.9,122.2,111,123.8,111,125.8z"/>
				<path fill="#FFFFFF" d="M103.3,123.3c0,1.2-0.9,2.1-2.1,2.1c-1.2,0-2.1-0.9-2.1-2.1c0-1.2,0.9-2.1,2.1-2.1
					C102.4,121.2,103.3,122.2,103.3,123.3z"/>
			</g>
			<g>
				<path fill="#3C3B42" d="M97.3,112.4c-0.2,0.8-1.7,1.3-3.6,2.4c-2,1.1-3.7,2.1-4.2,1.6c-0.5-0.4,0.6-2.4,3-3.8
					C94.8,111.1,97.5,111.7,97.3,112.4z"/>
			</g>
			<g>
				<path fill="#3C3B42" d="M137.2,125.8c0,2.1-0.7,4.1-2,5.4c-1.4,1.4-3.4,2-5.4,2c-2.1,0-3.9-0.9-5.2-2.2
					c-1.4-1.4-2.6-3.1-2.6-5.2c0-2.1,1.3-3.8,2.7-5.1c1.3-1.4,3.1-2.2,5.1-2.2c2.1,0,3.6,1,5,2.4C136,122.2,137.2,123.8,137.2,125.8
					z"/>
				<path fill="#FFFFFF" d="M129.5,123.3c0,1.2-0.9,2.1-2.1,2.1c-1.2,0-2.1-0.9-2.1-2.1c0-1.2,0.9-2.1,2.1-2.1
					C128.5,121.2,129.5,122.2,129.5,123.3z"/>
			</g>
			<g>
				<path fill="#3C3B42" d="M135.7,112.4c0.2,0.8,1.7,1.3,3.6,2.4c2,1.1,3.7,2.1,4.2,1.6c0.5-0.4-0.6-2.4-3-3.8
					C138.2,111.1,135.5,111.7,135.7,112.4z"/>
			</g>
		</g>
		<ellipse fill="#FFD5EC" cx="116.7" cy="147.2" rx="23.9" ry="18.7"/>
		<g>
			<g>
				<path fill="#3C3B42" d="M111.7,168.6c1,1.9,3,2.7,5.2,2.6l0,0c2.2-0.1,4.3-1.1,5.4-2.9l0,0l0,0c0.2-0.4,0.8-0.6,1.2-0.4l0,0
					c0.5,0.2,0.7,0.6,0.4,1l0,0c-1.4,2.4-4.2,3.7-7,3.8l0,0c-2.8,0.1-5.7-1-7-3.5l0,0c-0.2-0.4,0-0.8,0.5-1l0,0
					c0.1,0,0.2-0.1,0.3-0.1l0,0C111.2,168.1,111.5,168.3,111.7,168.6L111.7,168.6z"/>
			</g>
		</g>
		<g>
			<path fill="#FAB8DC" d="M155.2,97.8c0,0-4.7-8.4,3.2-15.7c3.5-3.2,21-17.9,32.6-12.4c-2.3,2.7-3.1,9.7-3.2,13.3
				c-0.2,4.7,0.2,11.4-4.3,15.8c-6.3,6.1-15.5,3.6-15.5,3.6L155.2,97.8z"/>
		</g>
		<g>
			<path fill="#E877AD" d="M164,85.4c1.9-1.7,11.3-9.6,17.5-6.7c-1.2,1.5-1.6,5.2-1.7,7.2c-0.1,2.5,0.1,6.1-2.3,8.5
				c-3.4,3.3-7.5,3.5-11.8,2.1C161.5,95,159.8,89.3,164,85.4z"/>
		</g>
		<g>
			<path fill="#FAB8DC" d="M76.1,97.8c0,0,4.7-8.4-3.2-15.7c-3.5-3.2-21-17.9-32.6-12.4c2.3,2.7,3.1,9.7,3.2,13.3
				c0.2,4.7-0.2,11.4,4.3,15.8c6.3,6.1,15.5,3.6,15.5,3.6L76.1,97.8z"/>
		</g>
		<g>
			<path fill="#E877AD" d="M67.3,85.4c-1.9-1.7-11.3-9.6-17.5-6.7c1.2,1.5,1.6,5.2,1.7,7.2c0.1,2.5-0.1,6.1,2.3,8.5
				c3.4,3.3,7.5,3.5,11.8,2.1C69.8,95,71.5,89.3,67.3,85.4z"/>
		</g>
		<ellipse fill="#E877AD" cx="108.4" cy="144.7" rx="5.5" ry="4.9"/>
		<ellipse fill="#E877AD" cx="123.4" cy="144.7" rx="5.5" ry="4.9"/>
	</g>
</g>
</svg>
