<?xml version="1.0" encoding="utf-8"?>
<!-- Generator: Adobe Illustrator 17.1.0, SVG Export Plug-In . SVG Version: 6.00 Build 0)  -->
<!DOCTYPE svg PUBLIC "-//W3C//DTD SVG 1.1//EN" "http://www.w3.org/Graphics/SVG/1.1/DTD/svg11.dtd">
<svg version="1.1" id="Layer_1" xmlns="http://www.w3.org/2000/svg" xmlns:xlink="http://www.w3.org/1999/xlink" x="0px" y="0px"
	 viewBox="0 0 236 284" enable-background="new 0 0 236 284" xml:space="preserve">
<rect y="0" fill="none" width="236" height="284"/>
<g>
	<ellipse fill="#0a91bc" cx="116" cy="271" rx="62.2" ry="3.9"/>
	<g>
		<polygon fill="#3C3B42" points="130.2,237.4 128.5,267.2 125.9,267.2 123,240.4"/>
	</g>
	<g>
		<g>
			<path fill="#3C3B42" d="M123.9,268.4c5.5,1.5,11,3,16.5,4.5c1.7,0.5,4.6-2,2.2-2.7c-5.5-1.5-11-3-16.5-4.5
				C124.4,265.2,121.5,267.7,123.9,268.4L123.9,268.4z"/>
		</g>
		<g>
			<path fill="#3C3B42" d="M126.7,268.6c4-0.2,8-0.4,11.9-0.6c2-0.1,3.2-2.4,0.5-2.3c-4,0.2-8,0.4-11.9,0.6
				C125.2,266.4,124,268.7,126.7,268.6L126.7,268.6z"/>
		</g>
		<g>
			<path fill="#3C3B42" d="M125.4,267.2c1.2,2.2,2.5,4.5,3.7,6.7c0.7,1.2,4.4-0.1,3.9-1c-1.2-2.2-2.5-4.5-3.7-6.7
				C128.6,264.9,124.9,266.3,125.4,267.2L125.4,267.2z"/>
		</g>
	</g>
	<g>
		<polygon fill="#3C3B42" points="103.9,237.4 105.5,267.2 108.1,267.2 111,240.4"/>
	</g>
	<path fill="#01A0A5" d="M121.1,173.4l-4.5,0.1l-4.5-0.1c0,0-60.3,78.5,4.3,78.5C181.1,251.9,121.1,173.4,121.1,173.4z"/>
	<g>
		<g>
			<path fill="#01A0A5" d="M134.5,195.2c0,0,4.1-0.9,13.8,5.7c9.7,6.6,8.8,21.3,8.8,21.3s-7.5,2.4-13.5-1c-6-3.4-8.4-10-8.4-10"/>
		</g>
	</g>
	<g>
		<g>
			<path fill="#01A0A5" d="M98.6,195.2c0,0-4.1-0.9-13.8,5.7c-9.7,6.6-8.8,21.3-8.8,21.3s7.5,2.4,13.5-1c6-3.4,8.4-10,8.4-10"/>
		</g>
	</g>
	<g>
		<path fill="#01A0A5" d="M53.7,135.6c-3.3-17,1.8-36.2,16.5-46.5c1.5-1.2,3.1-2.3,4.8-3.4c6.6-4.1,14.4-6.7,22.6-7.3
			c2.1-0.3,4.1-0.6,6.2-0.7c2.2-0.3,4.5-0.6,6.8-0.8c2.3-0.2,4.6-0.4,6.9-0.6c2.3-0.2,4.7-0.2,7-0.3c1.9,0,3.8,0,5.7,0.1
			c21,0.7,43.5,12.9,50,34.9c0.7,2.2,1.2,4.4,1.5,6.7c0.6,4.6,0.5,9.4-0.5,14.2c-0.3,2.9-0.8,5.6-1.5,8.1
			c-5.9,23-24.7,33.9-46.1,35.9c-2.6,0.3-5.3,0.4-8.1,0.4c-2.6,0.2-5.3,0.3-8.1,0.4c-2.7,0-5.5,0-8.4-0.1
			c-8.7-0.3-17.5-2.2-25.4-5.8c-2-0.9-3.9-1.9-5.7-3c-1.7-1.1-3.4-2.2-5-3.5c-1.3-1.1-2.6-2.3-3.9-3.4c-2-1.9-3.9-4-5.7-6.2
			c-0.9-1.1-1.8-2.3-2.6-3.4c-2.1-3.9-4-7.7-5.7-11.6C54.5,138.4,54.1,137.1,53.7,135.6z"/>
		<path fill="#01A0A5" d="M110.5,89c0,0-25-18.2-16.2-16.2c8.8,2,12.8,7.4,12.8,7.4s-0.7-14.2,2.7-14.2c3.4,0,4.7,10.1,4.7,10.1
			s4.7-5.4,11.5-5.4c6.8,0,2.7,7.4,2.7,7.4s6.1-6.8,10.8,0c4.7,6.8-9.5,10.8-9.5,10.8H110.5z"/>
		<g>
			<g>
				<path fill="#3C3B42" d="M111.6,124.5c0,2.1-0.7,4.1-2,5.5c-1.4,1.4-3.4,2-5.5,2c-2.1,0-3.9-0.9-5.2-2.3
					c-1.4-1.4-2.6-3.2-2.6-5.2c0-2.1,1.3-3.8,2.7-5.2c1.4-1.4,3.1-2.2,5.2-2.2c2.1,0,3.7,1,5,2.4
					C110.4,120.9,111.6,122.4,111.6,124.5z"/>
				<circle fill="#FFFFFF" cx="101.7" cy="122" r="2.1"/>
			</g>
			<g>
				<path fill="#3C3B42" d="M97.7,111c-0.2,0.8-1.7,1.3-3.7,2.4c-2,1.1-3.7,2.1-4.2,1.6c-0.5-0.4,0.6-2.5,3-3.8
					C95.3,109.7,97.9,110.3,97.7,111z"/>
			</g>
			<g>
				<path fill="#3C3B42" d="M137.8,124.5c0,2.1-0.7,4.1-2,5.5c-1.4,1.4-3.4,2-5.5,2c-2.1,0-3.9-0.9-5.2-2.3
					c-1.4-1.4-2.6-3.2-2.6-5.2c0-2.1,1.3-3.8,2.7-5.2c1.4-1.4,3.1-2.2,5.2-2.2c2.1,0,3.7,1,5,2.4
					C136.7,120.9,137.8,122.4,137.8,124.5z"/>
				<circle fill="#FFFFFF" cx="128" cy="122" r="2.1"/>
			</g>
			<g>
				<path fill="#3C3B42" d="M136.4,111c0.2,0.8,1.7,1.3,3.7,2.4c2,1.1,3.7,2.1,4.2,1.6c0.5-0.4-0.6-2.5-3-3.8
					C138.9,109.7,136.2,110.3,136.4,111z"/>
			</g>
		</g>
		<polygon fill="#3C3B42" points="117.8,140.2 91.4,151.6 115.5,163.2 141.8,152.6 		"/>
		<g>
			<g>
				<path fill="#F5D22E" d="M141.8,152.6c0,0-17.8-16.2-24.6-16.2c-6.8,0-25.8,15.3-25.8,15.3s21.4-7.4,25.8-7.8
					C121.6,143.5,141.8,152.6,141.8,152.6z"/>
			</g>
			<g>
				<path fill="#F5D22E" d="M119.4,158.6c-8.5,1.9-28-7-28-7s18.9,14.6,27.4,13.1c8.5-1.5,23.1-12.1,23.1-12.1
					S127.9,156.7,119.4,158.6z"/>
			</g>
		</g>
	</g>
	<g>
		<g>
			<path fill="#3C3B42" d="M108.7,265.7c-5.5,1.5-11,3-16.5,4.5c-2.4,0.7-1.7,3.4,0.7,2.7c5.5-1.5,11-3,16.5-4.5
				C111.8,267.8,111.1,265,108.7,265.7L108.7,265.7z"/>
		</g>
		<g>
			<path fill="#3C3B42" d="M107.8,266.3c-4-0.2-8-0.4-11.9-0.6c-1.6-0.1-4.1,2.2-1.5,2.3c4,0.2,8,0.4,11.9,0.6
				C107.9,268.7,110.5,266.4,107.8,266.3L107.8,266.3z"/>
		</g>
		<g>
			<path fill="#3C3B42" d="M104.8,266.9c-1.2,2.2-2.5,4.5-3.7,6.7c-0.4,0.8,1.4,0.7,1.6,0.7c0.8-0.1,1.8-0.4,2.2-1.2
				c1.2-2.2,2.5-4.5,3.7-6.7c0.4-0.8-1.4-0.7-1.6-0.7C106.2,265.8,105.2,266.1,104.8,266.9L104.8,266.9z"/>
		</g>
	</g>
	<path fill="#58C5CD" d="M132.8,221.3c0,5.5-0.7,12.1-7.7,17.1c-1.3,0.9-2.7,1.5-4.1,2c-1.5,0.5-3,0.7-4.6,0.7
		c-9.5,0-17.2-8.8-17.2-19.7c0-10.9,7.7-19.7,17.2-19.7c3.2,0,6.1,1,8.7,2.7c1.3,0.9,2.4,1.9,3.5,3.1c2.1,2.8,3.5,5.4,4,8.6
		C132.8,217.8,132.9,219.5,132.8,221.3z"/>
</g>
</svg>
