<?xml version="1.0" encoding="utf-8"?>
<!-- Generator: Adobe Illustrator 17.1.0, SVG Export Plug-In . SVG Version: 6.00 Build 0)  -->
<!DOCTYPE svg PUBLIC "-//W3C//DTD SVG 1.1//EN" "http://www.w3.org/Graphics/SVG/1.1/DTD/svg11.dtd">
<svg version="1.1" id="Layer_1" xmlns="http://www.w3.org/2000/svg" xmlns:xlink="http://www.w3.org/1999/xlink" x="0px" y="0px"
	 viewBox="0 0 236 284" enable-background="new 0 0 236 284" xml:space="preserve">
<rect y="0" fill="none" width="236" height="284"/>
<g>
	<ellipse fill="#0a91bc" cx="115.8" cy="271.3" rx="62.2" ry="3.9"/>
	<g>
		<path fill="none" stroke="#F7941D" stroke-width="8" stroke-linecap="round" stroke-miterlimit="10" d="M128.8,239.4
			c1.2,12.3,36.2,19.7,51.3,0.7c19-24-11.9-48.3-0.3-61c8.3-9.2,16.3,0.7,16.3,0.7"/>
	</g>
	<g>
		<polygon fill="#F7941D" points="104.6,241.9 107.6,267.2 111.7,267.3 114.4,244.6 		"/>
		<path fill="#F7941D" d="M117.4,272.5c0.1-4.4-2-7.7-9.2-7.8c-7.3-0.1-7,7.6-7,7.6L117.4,272.5z"/>
	</g>
	<g>
		<polygon fill="#F7941D" points="132,241.9 129,267.2 124.8,267.3 122.2,244.6 		"/>
		<path fill="#F7941D" d="M119.1,272.5c-0.1-4.4,2-7.7,9.2-7.8c7.3-0.1,7,7.6,7,7.6L119.1,272.5z"/>
	</g>
	<g>
		<path fill="#F7941D" d="M110.6,191.2c0,0-34.3,45.4-32.8,48.9c1.4,3.5,5,6.8,8.2,5.5c3.2-1.3,26.6-50.5,26.6-50.5L110.6,191.2z"/>
		<g>
			<path fill="#F3B6D3" d="M82.5,235.7c-2,3.6,8.1,8.3,7.8,2.1c-0.1-2.8-4.3-4.6-6.5-3.3C83.2,234.9,82.7,235.3,82.5,235.7z"/>
			<path fill="#F3B6D3" d="M82.3,242.2c0.2-0.2,0.4-0.4,0.5-0.6c1-2.7-3.8-1.1-3.5,0.7C79.5,243.5,81.4,242.9,82.3,242.2z"/>
			<path fill="#F3B6D3" d="M86.6,242.6c-0.6-1.3-3.8-0.3-3.2,1.3c0.5,1.3,3.2,0.4,3.3-0.7C86.7,243,86.7,242.8,86.6,242.6z"/>
			<path fill="#F3B6D3" d="M80.6,238.4c0.1-0.9-1-1.7-1.8-0.2c-0.7,1.2,0.4,1.9,1.4,1.1C80.4,239,80.6,238.7,80.6,238.4z"/>
		</g>
	</g>
	<g>
		<path fill="#F7941D" d="M124.6,191.2c0,0,34.3,45.4,32.8,48.9c-1.4,3.5-5,6.8-8.2,5.5c-3.2-1.3-26.6-50.5-26.6-50.5L124.6,191.2z"
			/>
		<g>
			<path fill="#F3B6D3" d="M152.7,235.7c2,3.6-8.1,8.3-7.8,2.1c0.1-2.8,4.3-4.6,6.5-3.3C152.1,234.9,152.5,235.3,152.7,235.7z"/>
			<path fill="#F3B6D3" d="M152.9,242.2c-0.2-0.2-0.4-0.4-0.5-0.6c-1-2.7,3.8-1.1,3.5,0.7C155.7,243.5,153.8,242.9,152.9,242.2z"/>
			<path fill="#F3B6D3" d="M148.6,242.6c0.6-1.3,3.8-0.3,3.2,1.3c-0.5,1.3-3.2,0.4-3.3-0.7C148.5,243,148.6,242.8,148.6,242.6z"/>
			<path fill="#F3B6D3" d="M154.7,238.4c-0.1-0.9,1-1.7,1.8-0.2c0.7,1.2-0.4,1.9-1.4,1.1C154.8,239,154.7,238.7,154.7,238.4z"/>
		</g>
	</g>
	<path fill="#F7941D" d="M121.9,184l-4,0.1l-4-0.1c0,0-53.9,70.2,3.9,70.2S121.9,184,121.9,184z"/>
	<g>
		<g>
			<path fill="#F7941D" d="M98.6,100c0,0-23.9-13.6-29.7-11c-5.8,2.6-4.5,33.9-4.5,33.9L98.6,100z"/>
			<path fill="#E27625" d="M98.6,105.3c0,0-20.8-11.8-25.9-9.6c-5.1,2.3-3.9,29.6-3.9,29.6L98.6,105.3z"/>
			<path fill="#F7941D" d="M139.3,100c0,0,23.9-13.6,29.7-11c5.8,2.6,4.5,33.9,4.5,33.9L139.3,100z"/>
			<path fill="#E27625" d="M139.3,105.3c0,0,20.8-11.8,25.9-9.6c5.1,2.3,3.9,29.6,3.9,29.6L139.3,105.3z"/>
			<g>
				<path fill="#F7941D" d="M113.6,108.1c0,0-22.6-17.1-14.6-15.1c8,2,11.7,7,11.7,7s-0.4-13,2.7-13c3.1,0,4.2,9.4,4.2,9.4
					s4.4-4.9,10.6-4.8c6.2,0.1,2.4,6.9,2.4,6.9s5.7-6.1,9.9,0.2c4.2,6.3-8.8,9.8-8.8,9.8L113.6,108.1z"/>
				<path fill="#F7941D" d="M60.8,150c-2.8-15.6,2.2-33.2,15.8-42.4c1.4-1.1,2.9-2.1,4.4-3c6.2-3.7,13.3-5.9,20.8-6.3
					c1.9-0.3,3.8-0.5,5.7-0.6c2-0.2,4.1-0.5,6.2-0.6c2.1-0.2,4.2-0.3,6.4-0.4c2.1-0.1,4.3-0.2,6.4-0.1c1.7,0,3.5,0.1,5.2,0.2
					c19.3,1,39.7,12.5,45.3,32.8c0.6,2,1,4.1,1.3,6.2c0.5,4.2,0.3,8.6-0.7,13c-0.3,2.6-0.8,5.1-1.5,7.4c-5.7,21-23.1,30.7-42.8,32.2
					c-2.4,0.2-4.9,0.3-7.4,0.2c-2.4,0.1-4.9,0.2-7.4,0.2c-2.5,0-5.1-0.1-7.7-0.3c-8-0.4-16-2.3-23.2-5.7c-1.8-0.9-3.5-1.8-5.2-2.8
					c-1.6-1-3.1-2.1-4.5-3.3c-1.2-1-2.4-2.1-3.5-3.2c-1.8-1.8-3.5-3.8-5.2-5.8c-0.8-1-1.6-2.1-2.3-3.2c-1.8-3.6-3.5-7.1-5-10.7
					C61.6,152.6,61.2,151.3,60.8,150z"/>
				<g>
					<g>
						<path fill="#3C3B42" d="M114.1,140.7c0,1.9-0.7,3.8-1.9,5c-1.3,1.2-3.1,1.8-5,1.8c-1.9,0-3.5-0.9-4.8-2.2
							c-1.2-1.3-2.3-2.9-2.3-4.8c0-1.9,1.3-3.5,2.5-4.7c1.3-1.2,2.9-2,4.8-2c1.9,0,3.3,1,4.6,2.3
							C113.1,137.3,114.1,138.8,114.1,140.7z"/>
						<path fill="#FFFFFF" d="M107,138.2c0,1.1-0.9,1.9-2,1.9c-1.1,0-1.9-0.9-1.9-2c0-1.1,0.9-1.9,2-1.9
							C106.2,136.3,107,137.2,107,138.2z"/>
					</g>
					<g>
						<path fill="#3C3B42" d="M101.6,128c-0.2,0.7-1.6,1.2-3.4,2.1c-1.8,1-3.4,1.9-3.9,1.4c-0.4-0.4,0.6-2.2,2.8-3.5
							C99.3,126.8,101.8,127.4,101.6,128z"/>
					</g>
					<g>
						<path fill="#3C3B42" d="M138.1,141.1c0,1.9-0.7,3.8-1.9,5c-1.3,1.2-3.1,1.8-5.1,1.8c-1.9,0-3.5-0.9-4.8-2.2
							c-1.2-1.3-2.4-2.9-2.3-4.8c0-1.9,1.3-3.5,2.5-4.7c1.3-1.2,2.9-2,4.8-2c1.9,0,3.3,1,4.6,2.3
							C137.2,137.7,138.2,139.2,138.1,141.1z"/>
						<path fill="#FFFFFF" d="M131.1,138.6c0,1.1-0.9,1.9-2,1.9c-1.1,0-1.9-0.9-1.9-2c0-1.1,0.9-1.9,2-1.9
							C130.3,136.7,131.1,137.6,131.1,138.6z"/>
					</g>
					<g>
						<path fill="#3C3B42" d="M137,128.6c0.1,0.7,1.5,1.2,3.3,2.3c1.8,1.1,3.4,2,3.9,1.5c0.4-0.4-0.5-2.3-2.7-3.6
							C139.3,127.5,136.8,128,137,128.6z"/>
					</g>
				</g>
				<g>
					<path fill="#E27625" d="M103.5,98.1c-0.6,0.1-1.1,0.1-1.7,0.2c-2,0.1-4,0.4-6,0.7l12.5,22.1L103.5,98.1z"/>
					<path fill="#E27625" d="M141.7,98.1c-2.6-0.6-5.3-1.1-7.9-1.3l-5.1,24.3L141.7,98.1z"/>
					<path fill="#E27625" d="M122.7,96.5c-0.9,0-1.7,0-2.6,0.1c-2.1,0.1-4.3,0.3-6.4,0.4c-0.2,0-0.3,0-0.5,0l4.9,26.3L122.7,96.5z"
						/>
					<path fill="#E27625" d="M69.2,167.5c0.1,0.1,0.1,0.2,0.2,0.3c0.7,0.9,1.5,1.8,2.3,2.7l9.4-7.9L69.2,167.5z"/>
					<path fill="#E27625" d="M60.1,142.1c0,2,0.2,3.9,0.4,5.9l17.8,0.4L60.1,142.1z"/>
					<path fill="#E27625" d="M62.8,155.7c0.9,1.9,1.8,3.9,2.7,5.8l15.8-6.2L62.8,155.7z"/>
					<path fill="#E27625" d="M168.5,171.6c0.9-1.1,1.7-2.3,2.5-3.5l-13.2-5.5L168.5,171.6z"/>
					<path fill="#E27625" d="M177.8,148c0.4-1.9,0.7-3.9,0.8-5.8l-18.1,6.2L177.8,148z"/>
					<path fill="#E27625" d="M174.2,161.9c0.8-1.8,1.4-3.8,2-5.8c0-0.1,0.1-0.2,0.1-0.3l-18.8-0.4L174.2,161.9z"/>
				</g>
			</g>
			<path fill="#FFFFFF" d="M142.2,164.1c0,7.5-18,15.5-22.6,15.5s-22.6-8-22.6-15.5c0-7.5,10.1-11.5,22.6-11.5
				C132.1,152.6,142.2,156.7,142.2,164.1z"/>
			<g>
				<g>
					<path fill="#3C3B42" d="M114.7,173.3c0.9,1.7,2.8,2.5,4.8,2.4l0,0c2-0.1,4-1,4.9-2.6l0,0l0,0c0.2-0.4,0.7-0.5,1.1-0.3l0,0
						c0.4,0.2,0.6,0.6,0.4,0.9l0,0c-1.3,2.2-3.9,3.3-6.4,3.4l0,0c-2.6,0.1-5.2-1-6.4-3.3l0,0c-0.2-0.4,0-0.8,0.5-0.9l0,0
						c0.1,0,0.2-0.1,0.3-0.1l0,0C114.2,172.9,114.6,173,114.7,173.3L114.7,173.3z"/>
				</g>
			</g>
			<path fill="#F3B6D3" d="M119.3,161.5c2.4,0.1,8.5-4,8.1-5.7c-0.4-1.7-14.5-0.9-15.9-0.2C110.2,156.2,116.9,161.4,119.3,161.5z"/>
		</g>
		<g>
			<circle fill="#F7941D" cx="102.2" cy="162.3" r="0.8"/>
			<circle fill="#F7941D" cx="107.2" cy="160.3" r="0.8"/>
			<circle fill="#F7941D" cx="106.2" cy="164.3" r="0.8"/>
			<circle fill="#F7941D" cx="136.2" cy="162.3" r="0.8"/>
			<circle fill="#F7941D" cx="131.2" cy="160.3" r="0.8"/>
			<circle fill="#F7941D" cx="132.2" cy="164.3" r="0.8"/>
		</g>
	</g>
	<path fill="#FFFFFF" d="M134.1,227.1c0,5.5-0.7,12.1-7.7,17.1c-1.3,0.9-2.7,1.5-4.1,2c-1.5,0.5-3,0.7-4.6,0.7
		c-9.5,0-17.2-8.8-17.2-19.7c0-10.9,7.7-19.7,17.2-19.7c3.2,0,6.1,1,8.7,2.7c1.3,0.9,2.4,1.9,3.5,3.1c2.1,2.8,3.5,5.4,4,8.6
		C134.2,223.6,134.2,225.3,134.1,227.1z"/>
	<g>
		<path fill="#E27625" d="M140.6,216.6c-0.3-0.9-0.7-1.7-1-2.5l-4.8,2.3L140.6,216.6z"/>
		<path fill="#E27625" d="M144,228.5c-0.2-1.3-0.5-2.6-0.9-4l-7.6,2.5L144,228.5z"/>
		<path fill="#E27625" d="M135.7,236.4l8.1,3.7c0.4-1.4,0.6-2.8,0.7-4.3L135.7,236.4z"/>
		<path fill="#E27625" d="M96,214.3c-0.3,0.8-0.6,1.6-1,2.3l5.3-0.2L96,214.3z"/>
		<path fill="#E27625" d="M92.4,224.7c-0.3,1.3-0.6,2.5-0.8,3.8l8-1.4L92.4,224.7z"/>
		<path fill="#E27625" d="M91,235.9c0.1,1.4,0.3,2.8,0.6,4.1l7.8-3.6L91,235.9z"/>
	</g>
</g>
</svg>
