<?xml version="1.0" encoding="utf-8"?>
<!-- Generator: Adobe Illustrator 17.1.0, SVG Export Plug-In . SVG Version: 6.00 Build 0)  -->
<!DOCTYPE svg PUBLIC "-//W3C//DTD SVG 1.1//EN" "http://www.w3.org/Graphics/SVG/1.1/DTD/svg11.dtd">
<svg version="1.1" id="Layer_1" xmlns="http://www.w3.org/2000/svg" xmlns:xlink="http://www.w3.org/1999/xlink" x="0px" y="0px"
	 viewBox="0 0 236 284" enable-background="new 0 0 236 284" xml:space="preserve">
<symbol  id="teeth" viewBox="-23 -18 45 35">
	<g>
		<g>
			<path fill="#FFFFFF" d="M-2,16c0,0.6-0.4,1-1,1h-19c-0.6,0-1-0.4-1-1v-33c0-0.6,0.4-1,1-1h19c0.6,0,1,0.4,1,1V16z"/>
		</g>
	</g>
	<g>
		<g>
			<path fill="#FFFFFF" d="M22,16c0,0.6-0.4,1-1,1H2c-0.6,0-1-0.4-1-1v-33c0-0.6,0.4-1,1-1h19c0.6,0,1,0.4,1,1V16z"/>
		</g>
	</g>
	<polygon display="none" fill="none" points="-23,17 22,17 22,-18 -23,-18 	"/>
</symbol>
<rect y="0" fill="none" width="236" height="284"/>
<g>
	<ellipse fill="#0a91bc" cx="116.5" cy="271.5" rx="62.2" ry="3.9"/>
	<g>
		<polygon fill="#F2C574" points="103.2,241.1 106.2,266.5 110.4,266.5 113,243.8 		"/>
		<path fill="#F2C574" d="M116.1,271.7c0.1-4.4-2-7.7-9.2-7.8c-7.3-0.1-7,7.6-7,7.6L116.1,271.7z"/>
	</g>
	<g>
		<polygon fill="#F2C574" points="130.7,241.1 127.6,266.5 123.5,266.5 120.8,243.8 		"/>
		<path fill="#F2C574" d="M117.8,271.7c-0.1-4.4,2-7.7,9.2-7.8c7.3-0.1,7,7.6,7,7.6L117.8,271.7z"/>
	</g>
	<g>
		<g>
			<path fill="#F2C574" d="M109.3,190.5c0,0-34.3,45.4-32.8,48.9c1.4,3.5,5,6.8,8.2,5.5c3.2-1.3,26.6-50.5,26.6-50.5L109.3,190.5z"
				/>
			<g>
				<path fill="#FAB8DC" d="M76.4,239.4c1.4,3.5,5,6.8,8.2,5.5c0.8-0.3,2.8-3.5,5.3-8c-1.4-3.5-4.9-6.1-9.1-6.3
					C77.9,235.1,76.1,238.5,76.4,239.4z"/>
			</g>
		</g>
		<g>
			<path fill="#FC98CF" d="M81.2,234.9c-2,3.6,8.1,8.3,7.8,2.1c-0.1-2.8-4.3-4.6-6.5-3.3C81.8,234.1,81.4,234.5,81.2,234.9z"/>
			<path fill="#FC98CF" d="M81,241.4c0.2-0.2,0.4-0.4,0.5-0.6c1-2.7-3.8-1.1-3.5,0.7C78.2,242.7,80.1,242.1,81,241.4z"/>
			<path fill="#FC98CF" d="M85.3,241.9c-0.6-1.3-3.8-0.3-3.2,1.3c0.5,1.3,3.2,0.4,3.3-0.7C85.4,242.2,85.3,242,85.3,241.9z"/>
			<path fill="#FC98CF" d="M79.2,237.7c0.1-0.9-1-1.7-1.8-0.2c-0.7,1.2,0.4,1.9,1.4,1.1C79.1,238.3,79.2,237.9,79.2,237.7z"/>
		</g>
	</g>
	<g>
		<g>
			<path fill="#F2C574" d="M123.4,190.5c0,0,34.3,45.4,32.8,48.9c-1.4,3.5-5,6.8-8.2,5.5c-3.2-1.3-26.6-50.5-26.6-50.5L123.4,190.5z
				"/>
			<g>
				<path fill="#FAB8DC" d="M156.2,239.4c-1.4,3.5-5,6.8-8.2,5.5c-0.8-0.3-2.8-3.5-5.3-8c1.4-3.5,4.9-6.1,9.1-6.3
					C154.7,235.1,156.5,238.5,156.2,239.4z"/>
			</g>
		</g>
		<g>
			<path fill="#FC98CF" d="M151.5,234.9c2,3.6-8.1,8.3-7.8,2.1c0.1-2.8,4.3-4.6,6.5-3.3C150.8,234.1,151.2,234.5,151.5,234.9z"/>
			<path fill="#FC98CF" d="M151.7,241.4c-0.2-0.2-0.4-0.4-0.5-0.6c-1-2.7,3.8-1.1,3.5,0.7C154.5,242.7,152.6,242.1,151.7,241.4z"/>
			<path fill="#FC98CF" d="M147.4,241.9c0.6-1.3,3.8-0.3,3.2,1.3c-0.5,1.3-3.2,0.4-3.3-0.7C147.3,242.2,147.3,242,147.4,241.9z"/>
			<path fill="#FC98CF" d="M153.4,237.7c-0.1-0.9,1-1.7,1.8-0.2c0.7,1.2-0.4,1.9-1.4,1.1C153.6,238.3,153.4,237.9,153.4,237.7z"/>
		</g>
	</g>
	<path fill="#F2C574" d="M120.6,183.2l-4,0.1l-4-0.1c0,0-53.9,70.2,3.9,70.2C174.3,253.3,120.6,183.2,120.6,183.2z"/>
	<path fill="#FFDFAA" d="M132.8,225.3c0,5.5-0.7,12.1-7.7,17.1c-1.3,0.9-2.7,1.5-4.1,2c-1.5,0.5-3,0.7-4.6,0.7
		c-9.5,0-17.2-8.8-17.2-19.7c0-10.9,7.7-19.7,17.2-19.7c3.2,0,6.1,1,8.7,2.7c1.3,0.9,2.4,1.9,3.5,3.1c2.1,2.8,3.5,5.4,4,8.6
		C132.8,221.8,132.9,223.5,132.8,225.3z"/>
	<g>
		<g>
			<path fill-rule="evenodd" clip-rule="evenodd" fill="#FAB8DC" d="M149.4,108.6c-11.2-15.5,14.4-22.7,20.3-12.1
				c5,8.9-2.5,18.5-12.1,18.4L149.4,108.6z"/>
			<path fill-rule="evenodd" clip-rule="evenodd" fill="#FC98CF" d="M165.5,101.8c-1.9-5.7-7.7-6.2-11.5-4.2
				c-7.7,3.9-3.2,12.2,0.9,14.2C160.6,114.6,168,109.2,165.5,101.8L165.5,101.8z"/>
			<path fill-rule="evenodd" clip-rule="evenodd" fill="#FAB8DC" d="M86.1,108.6c11.2-15.5-14.4-22.7-20.3-12.1
				c-5,8.9,2.5,18.5,12.1,18.4L86.1,108.6z"/>
			<path fill-rule="evenodd" clip-rule="evenodd" fill="#FC98CF" d="M70,101.8c1.9-5.7,7.7-6.2,11.5-4.2c7.7,3.9,3.2,12.2-0.9,14.2
				C74.9,114.6,67.5,109.2,70,101.8L70,101.8z"/>
			<g>
				<path fill="#F2C574" d="M112.3,107.3c0,0-22.6-17.1-14.6-15.1c8,2,11.7,7,11.7,7s-0.4-13,2.7-13c3.1,0,4.2,9.4,4.2,9.4
					s4.4-4.9,10.6-4.8c6.2,0.1,2.4,6.9,2.4,6.9s5.7-6.1,9.9,0.2c4.2,6.3-8.8,9.8-8.8,9.8L112.3,107.3z"/>
				<path fill="#F2C574" d="M59.5,149.2c-2.8-15.6,2.2-33.2,15.8-42.4c1.4-1.1,2.9-2.1,4.4-3c6.2-3.7,13.3-5.9,20.8-6.3
					c1.9-0.3,3.8-0.5,5.7-0.6c2-0.2,4.1-0.5,6.2-0.6c2.1-0.2,4.2-0.3,6.4-0.4c2.1-0.1,4.3-0.2,6.4-0.1c1.7,0,3.5,0.1,5.2,0.2
					c19.3,1,39.7,12.5,45.3,32.8c0.6,2,1,4.1,1.3,6.2c0.5,4.2,0.3,8.6-0.7,13c-0.3,2.6-0.8,5.1-1.5,7.4c-5.7,21-23.1,30.7-42.8,32.2
					c-2.4,0.2-4.9,0.3-7.4,0.2c-2.4,0.1-4.9,0.2-7.4,0.2c-2.5,0-5.1-0.1-7.7-0.3c-8-0.4-16-2.3-23.2-5.7c-1.8-0.9-3.5-1.8-5.2-2.8
					c-1.6-1-3.1-2.1-4.5-3.3c-1.2-1-2.4-2.1-3.5-3.2c-1.8-1.8-3.5-3.8-5.2-5.8c-0.8-1-1.6-2.1-2.3-3.2c-1.8-3.6-3.5-7.1-5-10.7
					C60.2,151.8,59.8,150.5,59.5,149.2z"/>
				<g>
					<g>
						<path fill="#3C3B42" d="M112.7,139.9c0,1.9-0.7,3.8-1.9,5c-1.3,1.2-3.1,1.8-5,1.8c-1.9,0-3.5-0.9-4.8-2.2
							c-1.2-1.3-2.3-2.9-2.3-4.8c0-1.9,1.3-3.5,2.5-4.7c1.3-1.2,2.9-2,4.8-2c1.9,0,3.3,1,4.6,2.3C111.7,136.5,112.8,138,112.7,139.9
							z"/>
						<path fill="#FFFFFF" d="M105.7,137.4c0,1.1-0.9,1.9-2,1.9c-1.1,0-1.9-0.9-1.9-2c0-1.1,0.9-1.9,2-1.9
							C104.8,135.5,105.7,136.4,105.7,137.4z"/>
					</g>
					<g>
						<path fill="#3C3B42" d="M100.3,127.3c-0.2,0.7-1.6,1.2-3.4,2.1c-1.8,1-3.4,1.9-3.9,1.4c-0.4-0.4,0.6-2.2,2.8-3.5
							C98,126.1,100.4,126.6,100.3,127.3z"/>
					</g>
					<g>
						<path fill="#3C3B42" d="M136.8,140.3c0,1.9-0.7,3.8-1.9,5c-1.3,1.2-3.1,1.8-5.1,1.8c-1.9,0-3.5-0.9-4.8-2.2
							c-1.2-1.3-2.4-2.9-2.3-4.8c0-1.9,1.3-3.5,2.5-4.7c1.3-1.2,2.9-2,4.8-2c1.9,0,3.3,1,4.6,2.3
							C135.8,136.9,136.8,138.4,136.8,140.3z"/>
						<path fill="#FFFFFF" d="M129.8,137.8c0,1.1-0.9,1.9-2,1.9c-1.1,0-1.9-0.9-1.9-2c0-1.1,0.9-1.9,2-1.9
							C128.9,135.9,129.8,136.8,129.8,137.8z"/>
					</g>
					<g>
						<path fill="#3C3B42" d="M135.7,127.8c0.1,0.7,1.5,1.2,3.3,2.3c1.8,1.1,3.4,2,3.9,1.5c0.4-0.4-0.5-2.3-2.7-3.6
							C138,126.7,135.5,127.2,135.7,127.8z"/>
					</g>
				</g>
			</g>
			<path fill="#FFF0BD" d="M140.8,163.3c0,7.5-18,15.5-22.6,15.5s-22.6-8-22.6-15.5s10.1-11.5,22.6-11.5
				C130.7,151.8,140.8,155.9,140.8,163.3z"/>
			<path fill="#3C3B42" d="M117.2,161.4c2.4,0.1,8.5-4,8.1-5.7c-0.4-1.7-14.5-0.9-15.9-0.2C108,156.2,114.7,161.3,117.2,161.4z"/>
			<g>
				<g>
					<path fill="#3C3B42" d="M113.2,172.4c0.9,1.8,2.9,2.6,4.9,2.5l0,0c2.1-0.1,4.1-1,5.1-2.7l0,0l0,0c0.2-0.4,0.7-0.5,1.2-0.3l0,0
						c0.4,0.2,0.6,0.6,0.4,1l0,0c-1.3,2.3-4,3.5-6.6,3.5l0,0c-2.7,0.1-5.4-1-6.6-3.4l0,0c-0.2-0.4,0-0.8,0.5-1l0,0
						c0.1,0,0.2-0.1,0.3-0.1l0,0C112.7,171.9,113,172.1,113.2,172.4L113.2,172.4z"/>
				</g>
			</g>
		</g>
		<g>
			<defs>
				<path id="SVGID_1_" d="M110.8,183.3h15.8v-12c0,0-5.1,4.3-8.2,4.3c-3.1,0-7.1-3.9-7.1-3.9L110.8,183.3z"/>
			</defs>
			<clipPath id="SVGID_2_">
				<use xlink:href="#SVGID_1_"  overflow="visible"/>
			</clipPath>
			<g transform="matrix(1 0 0 1 0 -1.525879e-05)" clip-path="url(#SVGID_2_)">
				
					<use xlink:href="#teeth"  width="45" height="35" id="XMLID_2_" x="-23" y="-18" transform="matrix(0.2753 0 0 -0.2753 118.4561 176.6819)" overflow="visible"/>
			</g>
		</g>
	</g>
	<g>
		<g>
			<path fill="#3C3B42" d="M113.2,172.4c0.9,1.8,2.9,2.6,4.9,2.5l0,0c2.1-0.1,4.1-1,5.1-2.7l0,0l0,0c0.2-0.4,0.7-0.5,1.2-0.3l0,0
				c0.4,0.2,0.6,0.6,0.4,1l0,0c-1.3,2.3-4,3.5-6.6,3.5l0,0c-2.7,0.1-5.4-1-6.6-3.4l0,0c-0.2-0.4,0-0.8,0.5-1l0,0
				c0.1,0,0.2-0.1,0.3-0.1l0,0C112.7,171.9,113,172.1,113.2,172.4L113.2,172.4z"/>
		</g>
	</g>
</g>
</svg>
