<?xml version="1.0" encoding="utf-8"?>
<!-- Generator: Adobe Illustrator 17.1.0, SVG Export Plug-In . SVG Version: 6.00 Build 0)  -->
<!DOCTYPE svg PUBLIC "-//W3C//DTD SVG 1.1//EN" "http://www.w3.org/Graphics/SVG/1.1/DTD/svg11.dtd">
<svg version="1.1" id="Layer_1" xmlns="http://www.w3.org/2000/svg" xmlns:xlink="http://www.w3.org/1999/xlink" x="0px" y="0px"
	 viewBox="0 0 236 284" enable-background="new 0 0 236 284" xml:space="preserve">
<rect y="0" fill="none" width="236" height="284"/>
<g>
	<ellipse fill="#0a91bc" cx="115.3" cy="270.8" rx="62.2" ry="3.9"/>
	<g>
		<polygon fill="#FFFFFF" points="103.7,238.3 107,259.6 111.6,259.6 114.5,241.3 		"/>
		<path fill="#3C3B42" d="M117.8,271.9c0.1-8-2.2-14.2-10.2-14.3c-8-0.1-7.8,14.1-7.8,14.1L117.8,271.9z"/>
	</g>
	<g>
		<polygon fill="#FFFFFF" points="134.1,238.3 130.8,259.6 126.2,259.6 123.3,241.3 		"/>
		<path fill="#3C3B42" d="M119.9,271.9c-0.1-8,2.2-14.2,10.2-14.3c8-0.1,7.8,14.1,7.8,14.1L119.9,271.9z"/>
	</g>
	<polygon fill="#FFFFFF" points="123.5,177.7 161.2,234.2 151.7,240.5 121.2,182.2 	"/>
	<polygon fill="#3C3B42" points="156.2,226.8 147,232.6 152.4,242.3 158.1,238 162.4,234.9 	"/>
	<polygon fill="#FFFFFF" points="111.5,177.7 73.8,234.2 83.3,240.5 113.8,182.2 	"/>
	<polygon fill="#3C3B42" points="78.8,226.8 88,232.6 82.6,242.3 76.9,238 72.6,234.9 	"/>
	<path fill="#FFFFFF" d="M122.2,173.2l-4.4,0.1l-4.4-0.1c0,0-59.2,77,4.3,77C181.1,250.2,122.2,173.2,122.2,173.2z"/>
	<g>
		<path fill="#FFFFFF" d="M55.3,137.1c-3.3-16.9,1.8-36,16.4-46.2c1.5-1.2,3.1-2.3,4.7-3.4c6.6-4.1,14.3-6.7,22.5-7.2
			c2.1-0.3,4.1-0.6,6.2-0.7c2.2-0.3,4.4-0.6,6.7-0.8c2.3-0.2,4.6-0.4,6.9-0.6c2.3-0.2,4.7-0.2,7-0.3c1.9,0,3.8,0,5.7,0.1
			c20.9,0.7,43.3,12.8,49.7,34.7c0.7,2.2,1.2,4.4,1.5,6.7c0.6,4.6,0.5,9.3-0.5,14.1c-0.3,2.8-0.8,5.5-1.5,8.1
			c-5.8,22.8-24.6,33.7-45.9,35.7c-2.6,0.3-5.3,0.4-8,0.4c-2.6,0.2-5.3,0.3-8.1,0.4c-2.7,0-5.5,0-8.3-0.1
			c-8.7-0.3-17.4-2.2-25.2-5.7c-2-0.9-3.9-1.9-5.7-3c-1.7-1-3.3-2.2-4.9-3.5c-1.3-1.1-2.6-2.3-3.9-3.4c-2-1.9-3.9-4-5.7-6.2
			c-0.9-1.1-1.8-2.2-2.6-3.4c-2.1-3.8-4-7.7-5.7-11.5C56.1,139.9,55.7,138.5,55.3,137.1z"/>
		<path fill="#FFFFFF" d="M111.8,90.8c-4.4-1.8-24.9-18.2-16.1-16.1c8.7,2,12.8,7.4,12.8,7.4s-0.7-14.1,2.7-14.1
			c3.4,0,4.7,10.1,4.7,10.1s4.7-5.4,11.4-5.4c6.7,0,2.7,7.4,2.7,7.4s6-6.7,10.8,0c4.7,6.7-10.5,10.9-13.3,11.1
			C124.5,91.4,115.9,92.5,111.8,90.8z"/>
		<g>
			<g>
				<path fill="#3C3B42" d="M112.9,126.1c0,2.1-0.7,4.1-2,5.4c-1.4,1.4-3.4,2-5.4,2s-3.9-0.9-5.2-2.2c-1.4-1.4-2.6-3.1-2.6-5.2
					c0-2.1,1.3-3.8,2.7-5.1c1.4-1.4,3.1-2.2,5.1-2.2s3.6,1,5,2.4C111.7,122.4,112.9,124,112.9,126.1z"/>
				<path fill="#FFFFFF" d="M105.2,123.6c0,1.2-0.9,2.1-2.1,2.1c-1.2,0-2.1-0.9-2.1-2.1c0-1.2,0.9-2.1,2.1-2.1
					C104.2,121.5,105.2,122.4,105.2,123.6z"/>
			</g>
			<g>
				<path fill="#3C3B42" d="M99.1,112.6c-0.2,0.8-1.7,1.3-3.6,2.4c-2,1.1-3.7,2.1-4.2,1.6c-0.5-0.4,0.6-2.4,3-3.8
					C96.6,111.3,99.3,111.9,99.1,112.6z"/>
			</g>
			<g>
				<path fill="#3C3B42" d="M139,126.1c0,2.1-0.7,4.1-2,5.4c-1.4,1.4-3.4,2-5.4,2s-3.9-0.9-5.2-2.2c-1.4-1.4-2.6-3.1-2.6-5.2
					c0-2.1,1.3-3.8,2.7-5.1c1.3-1.4,3.1-2.2,5.1-2.2s3.6,1,5,2.4C137.9,122.4,139,124,139,126.1z"/>
				<path fill="#FFFFFF" d="M131.3,123.6c0,1.2-0.9,2.1-2.1,2.1c-1.2,0-2.1-0.9-2.1-2.1c0-1.2,0.9-2.1,2.1-2.1
					C130.4,121.5,131.3,122.4,131.3,123.6z"/>
			</g>
			<g>
				<path fill="#3C3B42" d="M137.5,112.6c0.2,0.8,1.7,1.3,3.6,2.4c2,1.1,3.7,2.1,4.2,1.6c0.5-0.4-0.6-2.4-3-3.8
					C140,111.3,137.4,111.9,137.5,112.6z"/>
			</g>
		</g>
		<path fill="#F3B6D3" d="M154.9,159.4c0,24.3-16.5,28.8-36.9,28.8c-20.4,0-36.9-5.4-36.9-28.8s16.5-28.8,36.9-28.8
			C138.4,130.7,154.9,135.1,154.9,159.4z"/>
		<path fill="#BA89A4" d="M131.3,139.2c3-0.5,5.7-0.1,4.4,2.8c-1.6,3.6-6.1,5-9.8,4.6c-3.1-0.4-2.6-3.5-0.9-5.1
			C125.8,140.8,128.7,139.7,131.3,139.2z"/>
		<path fill="#BA89A4" d="M104,139.2c-3-0.5-5.7-0.1-4.4,2.8c1.6,3.6,6.1,5,9.8,4.6c3.1-0.4,2.6-3.5,0.9-5.1
			C109.5,140.8,106.6,139.7,104,139.2z"/>
		<g>
			<g>
				<path fill="#3C3B42" d="M113.5,176.5c1,1.9,3,2.7,5.2,2.6l0,0c2.2-0.1,4.3-1.1,5.4-2.9l0,0l0,0c0.2-0.4,0.8-0.6,1.2-0.4l0,0
					c0.5,0.2,0.7,0.6,0.4,1l0,0c-1.4,2.4-4.2,3.7-7,3.8l0,0c-2.8,0.1-5.7-1-7-3.5l0,0c-0.2-0.4,0-0.8,0.5-1l0,0
					c0.1,0,0.2-0.1,0.3-0.1l0,0C113,176,113.4,176.2,113.5,176.5L113.5,176.5z"/>
			</g>
		</g>
	</g>
	<path fill="#FFFFFF" d="M63.8,103c-14.5-1.5-51.8,11.5-27,17.3c24.8,5.8,27.5-13.8,27.5-13.8L63.8,103z"/>
	<path fill="#F3B6D3" d="M58.8,106.7c-8.6-0.9-30.7,6.8-16,10.2c14.7,3.4,16.3-8.2,16.3-8.2L58.8,106.7z"/>
	<path fill="#FFFFFF" d="M202.3,120.2c-24.8,5.8-27.5-13.8-27.5-13.8l0.5-3.5C189.8,101.5,227.2,114.5,202.3,120.2"/>
	<path fill="#F3B6D3" d="M180.3,106.7c8.6-0.9,30.7,6.8,16,10.2c-14.7,3.4-16.3-8.2-16.3-8.2L180.3,106.7z"/>
	<path fill="#CAAA61" d="M69.6,66.4c0.5-0.5,1.5-1.2,2.1-0.4c0.6,0.8,0.3,2.1,0.2,3.2c0.5,1.5,0.6,3.3,1.1,4.8
		c0.7,1.9,2,3.4,3.5,4.7c2.6,2.1,5.6,3.1,7.2,6.2c1.4,2.8,0.1,5.4-2.6,6.5c-3,1.2-6.9,0-9.3-2c-4.8-4.1-6.3-12.2-4.4-18.3
		C67.8,69.4,68.4,67.8,69.6,66.4z"/>
	<path fill="#CAAA61" d="M162.8,66.4c-0.5-0.5-1.5-1.2-2.1-0.4c-0.6,0.8-0.3,2.1-0.2,3.2c-0.5,1.5-0.6,3.3-1.1,4.8
		c-0.7,1.9-2,3.4-3.5,4.7c-2.6,2.1-5.6,3.1-7.2,6.2c-1.4,2.8-0.1,5.4,2.6,6.5c3,1.2,6.9,0,9.3-2c4.8-4.1,6.3-12.2,4.3-18.3
		C164.6,69.4,164,67.8,162.8,66.4z"/>
	<path fill="#3C3B42" d="M131.8,216.9c1.8,0,3.4-0.4,5.2-0.9c1.8-0.6,3.8-1.1,5.6-0.2c3.1,1.6,4.3,5.9,1.4,8.3
		c-1.7,1.4-2.4,2.5-3.1,4.5c-0.6,1.7-1.1,3.4-3,4c-1.7,0.6-3.2-0.3-4.9-0.5c-2.2-0.3-2.9,1.1-4.8,1.6c-0.9,0.2-2-0.2-2.6-0.9
		c-1.7-1.9-0.2-4.6-0.9-6.7c-0.4-1.2-1.5-1.9-2.2-3c-0.9-1.4-0.8-3.2,0.1-4.6C124.6,215.2,128.8,216.9,131.8,216.9z"/>
	<g>
		<path fill="#3C3B42" d="M98.8,226.6c8.8,2.4,13.3-3.4,14-4.9c1.1-2.6,0.6-5.8-0.9-8.2c-1.3-2.2-3.3-3.9-3.6-6.5
			c-0.3-2.7,1.2-4.9,2.1-7.4c0.5-1.3,0.8-2.6,0.8-4c0-1.9-1.2-3.1-2.7-4.2c-1.7-1.3-4.3-1-6.4-1.4C92.7,202.1,88,219.7,88,222
			C90.8,224.5,95.2,225.6,98.8,226.6z"/>
	</g>
</g>
</svg>
